<?xml version="1.0" encoding="UTF-8" standalone="no"?>
<!DOCTYPE svg PUBLIC "-//W3C//DTD SVG 1.1//EN" "http://www.w3.org/Graphics/SVG/1.1/DTD/svg11.dtd">
<svg width="100%" height="100%" viewBox="0 0 308 119" version="1.1" xmlns="http://www.w3.org/2000/svg" xmlns:xlink="http://www.w3.org/1999/xlink" xml:space="preserve" xmlns:serif="http://www.serif.com/" style="fill-rule:evenodd;clip-rule:evenodd;stroke-linejoin:round;stroke-miterlimit:2;">
    <g transform="matrix(0.027284,0,0,0.027284,-2.10716,57.4439)">
        <g id="Ebene1">
            <g transform="matrix(4.16667,0,0,4.16667,0,1020.41)">
                <path d="M1096.95,220.439L1075.12,132.217L1086.99,132.217L1097.21,176.852C1099.76,187.847 1102.06,198.84 1103.59,207.348L1103.84,207.348C1105.12,198.578 1107.93,187.977 1110.86,176.722L1122.35,132.217L1133.97,132.217L1144.44,176.983C1146.86,187.454 1149.16,197.925 1150.44,207.217L1150.69,207.217C1152.48,197.532 1154.9,187.585 1157.46,176.722L1168.82,132.217L1180.31,132.217L1155.92,220.439L1144.18,220.439L1133.46,174.498C1130.78,163.238 1128.99,154.6 1127.84,145.7L1127.59,145.7C1126.06,154.469 1124.01,163.108 1120.95,174.498L1108.82,220.439L1096.95,220.439Z" style="fill:white;fill-rule:nonzero;"/>
            </g>
            <g transform="matrix(0,4.16667,4.16667,0,4448.22,-3427.81)">
                <rect x="1199.79" y="170.711" width="88.222" height="11.234" style="fill:white;"/>
            </g>
            <g transform="matrix(4.16667,0,0,4.16667,0,1020.41)">
                <path d="M1367.72,179.077L1334.41,179.077L1334.41,211.016L1371.68,211.016L1371.68,220.439L1323.17,220.439L1323.17,132.217L1369.77,132.217L1369.77,141.645L1334.41,141.645L1334.41,169.653L1367.72,169.653L1367.72,179.077Z" style="fill:white;fill-rule:nonzero;"/>
            </g>
            <g transform="matrix(4.16667,0,0,4.16667,0,1020.95)">
                <path d="M1438.83,206.433C1443.81,209.576 1451.09,212.192 1458.75,212.192C1470.1,212.192 1476.74,206.04 1476.74,197.14C1476.74,188.894 1472.15,184.184 1460.4,179.601C1446.49,174.629 1437.81,166.906 1437.81,154.6C1437.81,140.99 1448.92,130.778 1465.64,130.778C1474.32,130.778 1480.83,132.875 1484.66,134.968L1481.6,144.261C1478.79,142.69 1473.04,140.07 1465.26,140.07C1453.51,140.07 1449.04,147.27 1449.04,153.292C1449.04,161.538 1454.27,165.594 1466.15,170.308C1480.7,176.199 1488.11,183.267 1488.11,196.224C1488.11,209.838 1478.27,221.747 1457.98,221.747C1449.55,221.747 1440.49,219.131 1435.89,215.986L1438.83,206.433Z" style="fill:white;fill-rule:nonzero;"/>
            </g>
            <g transform="matrix(4.16667,0,0,4.16667,0,1020.95)">
                <path d="M1557.55,133.267C1562.53,132.216 1570.31,131.432 1577.97,131.432C1589.08,131.432 1596.23,133.398 1601.46,137.846C1606.06,141.252 1608.74,146.484 1608.74,153.423C1608.74,161.931 1603.12,169.523 1594.19,172.793L1594.19,173.055C1602.36,175.152 1611.93,181.955 1611.93,195.308C1611.93,202.769 1609.12,208.529 1604.53,212.847C1598.65,218.477 1588.95,221.093 1574.91,221.093C1567.12,221.093 1561.38,220.569 1557.55,220.046L1557.55,133.267ZM1568.78,169.523L1578.87,169.523C1590.48,169.523 1597.5,163.107 1597.5,154.6C1597.5,144.261 1589.84,140.201 1578.61,140.201C1573.5,140.201 1570.57,140.594 1568.78,140.99L1568.78,169.523ZM1568.78,211.669C1571.08,212.062 1574.02,212.192 1578.1,212.192C1589.59,212.192 1600.31,207.875 1600.31,195.177C1600.31,183.006 1590.1,178.03 1577.97,178.03L1568.78,178.03L1568.78,211.669Z" style="fill:white;fill-rule:nonzero;"/>
            </g>
            <g transform="matrix(4.16667,0,0,4.16667,0,1020.41)">
                <path d="M1691.16,192.691L1682.35,220.439L1670.73,220.439L1700.09,132.217L1713.37,132.217L1742.73,220.439L1730.86,220.439L1721.67,192.691L1691.16,192.691ZM1719.37,183.791L1710.94,158.398C1709.03,152.638 1707.75,147.4 1706.48,142.298L1706.1,142.298C1704.95,147.531 1703.54,152.899 1701.88,158.267L1693.46,183.791L1719.37,183.791Z" style="fill:white;fill-rule:nonzero;"/>
            </g>
            <g transform="matrix(4.16667,0,0,4.16667,0,1020.95)">
                <path d="M1802.62,133.267C1809.52,132.216 1817.56,131.432 1826.37,131.432C1842.32,131.432 1853.68,135.23 1861.22,142.429C1868.87,149.629 1873.34,159.968 1873.34,174.102C1873.34,188.501 1869,200.152 1860.96,208.399C1852.79,216.645 1839.64,221.093 1822.92,221.093C1815.01,221.093 1808.37,220.7 1802.62,220.046L1802.62,133.267ZM1813.86,211.276C1816.66,211.8 1820.75,211.931 1825.09,211.931C1848.84,211.931 1861.73,198.317 1861.73,174.498C1861.85,153.685 1850.37,140.463 1826.88,140.463C1821.13,140.463 1816.79,141.121 1813.86,141.644L1813.86,211.276Z" style="fill:white;fill-rule:nonzero;"/>
            </g>
            <g transform="matrix(4.16667,0,0,4.16667,0,1020.41)">
                <path d="M1981.57,179.077L1948.26,179.077L1948.26,211.016L1985.53,211.016L1985.53,220.439L1937.02,220.439L1937.02,132.217L1983.62,132.217L1983.62,141.645L1948.26,141.645L1948.26,169.653L1981.57,169.653L1981.57,179.077Z" style="fill:white;fill-rule:nonzero;"/>
            </g>
            <g transform="matrix(4.16667,0,0,4.16667,0,1020.41)">
                <path d="M2054.08,220.439L2054.08,132.217L2066.46,132.217L2093.91,176.722C2100.16,187.192 2105.26,196.485 2109.35,205.516L2109.61,205.386C2108.59,193.607 2108.33,182.875 2108.33,169.261L2108.33,132.217L2118.8,132.217L2118.8,220.439L2107.57,220.439L2080.24,175.676C2074.25,165.856 2068.5,155.777 2064.16,146.223L2063.78,146.353C2064.42,157.479 2064.67,168.083 2064.67,182.74L2064.67,220.439L2054.08,220.439Z" style="fill:white;fill-rule:nonzero;"/>
            </g>
            <g transform="matrix(4.16667,0,0,4.16667,0,-539.244)">
                <path d="M70.482,268.07C81.812,265.746 99.528,264.002 116.957,264.002C142.227,264.002 158.493,268.36 170.402,278.236C180.86,285.787 186.96,297.406 186.96,312.801C186.96,331.681 174.178,348.529 153.846,355.789L153.846,356.37C172.436,361.019 194.221,376.121 194.221,405.749C194.221,422.307 187.831,435.087 177.375,444.67C164.012,457.16 141.937,462.97 109.986,462.97C92.268,462.97 79.197,461.809 70.482,460.648L70.482,268.07ZM96.043,348.529L118.991,348.529C145.422,348.529 161.397,334.297 161.397,315.415C161.397,292.469 143.971,283.465 118.408,283.465C106.792,283.465 100.111,284.335 96.043,285.206L96.043,348.529ZM96.043,442.058C101.272,442.929 107.953,443.219 117.247,443.219C143.39,443.219 167.788,433.636 167.788,405.459C167.788,378.447 144.551,367.408 116.957,367.408L96.043,367.408L96.043,442.058Z" style="fill:white;fill-rule:nonzero;"/>
            </g>
            <g transform="matrix(4.16667,0,0,4.16667,0,-540.444)">
                <path d="M343.81,369.729L267.997,369.729L267.997,440.605L352.814,440.605L352.814,461.517L242.437,461.517L242.437,265.743L348.456,265.743L348.456,286.657L267.997,286.657L267.997,348.817L343.81,348.817L343.81,369.729Z" style="fill:white;fill-rule:nonzero;"/>
            </g>
            <g transform="matrix(4.16667,0,0,4.16667,0,-546.499)">
                <path d="M401.289,269.812C414.359,267.196 432.658,265.743 450.087,265.743C477.101,265.743 494.527,270.682 506.727,281.721C516.312,290.433 522.122,303.796 522.122,318.9C522.122,344.751 505.856,361.889 485.232,368.86L485.232,369.441C500.337,374.959 509.341,389.192 513.988,409.233C520.378,436.828 525.027,455.418 529.092,462.97L502.951,462.97C499.756,457.45 495.398,440.602 489.881,416.203C484.071,389.482 473.613,379.024 450.668,378.152L426.849,378.152L426.849,462.97L401.289,462.97L401.289,269.812ZM426.849,358.983L452.702,358.983C479.714,358.983 496.852,344.17 496.852,321.803C496.852,296.242 478.552,285.496 451.829,285.206C439.338,285.206 430.917,286.367 426.849,287.529L426.849,358.983Z" style="fill:white;fill-rule:nonzero;"/>
            </g>
            <g transform="matrix(4.16667,0,0,4.16667,0,-527.126)">
                <path d="M597.644,262.547L597.644,379.023C597.644,422.302 616.814,440.892 643.247,440.892C672.002,440.892 690.883,421.721 690.883,379.023L690.883,262.547L716.155,262.547L716.155,376.99C716.155,437.118 684.783,461.517 642.377,461.517C602.292,461.517 572.084,438.859 572.084,378.151L572.084,262.547L597.644,262.547Z" style="fill:white;fill-rule:nonzero;"/>
            </g>
            <g transform="matrix(4.16667,0,0,4.16667,0,-540.444)">
                <path d="M769.535,265.743L874.973,265.743L874.973,286.657L795.095,286.657L795.095,352.01L869.164,352.01L869.164,372.926L795.095,372.926L795.095,461.517L769.535,461.517L769.535,265.743Z" style="fill:white;fill-rule:nonzero;"/>
            </g>
            <g transform="matrix(4.16667,0,0,4.16667,0,-539.228)">
                <path d="M916.028,430.435C927.357,437.405 943.913,443.215 961.341,443.215C987.192,443.215 1002.3,429.564 1002.3,409.814C1002.3,391.514 991.839,381.056 965.117,370.888C933.456,359.853 913.704,342.715 913.704,315.411C913.704,285.202 938.974,262.547 977.026,262.547C996.777,262.547 1011.59,267.193 1020.31,271.842L1013.33,292.465C1006.94,288.978 993.872,283.17 976.153,283.17C949.432,283.17 939.266,299.146 939.266,312.506C939.266,330.806 951.173,339.809 978.187,350.267C1011.3,363.337 1028.15,379.024 1028.15,407.777C1028.15,437.986 1005.78,464.421 959.598,464.421C940.427,464.421 919.804,458.611 909.348,451.637L916.028,430.435Z" style="fill:white;fill-rule:nonzero;"/>
            </g>
            <g transform="matrix(4.16667,0,0,4.16667,0,-540.444)">
                <path d="M1074.63,265.743L1194.3,265.743L1194.3,302.052L1119.07,302.052L1119.07,346.78L1189.37,346.78L1189.37,382.799L1119.07,382.799L1119.07,461.517L1074.63,461.517L1074.63,265.743Z" style="fill:white;fill-rule:nonzero;"/>
            </g>
            <g transform="matrix(4.16667,0,0,4.16667,0,-540.444)">
                <path d="M1344.18,378.735L1272.15,378.735L1272.15,425.208L1352.61,425.208L1352.61,461.517L1227.71,461.517L1227.71,265.743L1348.54,265.743L1348.54,302.052L1272.15,302.052L1272.15,342.717L1344.18,342.717L1344.18,378.735Z" style="fill:white;fill-rule:nonzero;"/>
            </g>
            <g transform="matrix(4.16667,0,0,4.16667,0,-527.126)">
                <path d="M1426.96,262.547L1426.96,375.829C1426.96,409.231 1439.75,426.079 1462.4,426.079C1485.64,426.079 1498.42,410.102 1498.42,375.829L1498.42,262.547L1542.57,262.547L1542.57,372.923C1542.57,433.34 1512.07,461.517 1460.95,461.517C1411.57,461.517 1382.53,434.791 1382.53,372.342L1382.53,262.547L1426.96,262.547Z" style="fill:white;fill-rule:nonzero;"/>
            </g>
            <g transform="matrix(4.16667,0,0,4.16667,0,-540.444)">
                <path d="M1697.39,378.735L1625.35,378.735L1625.35,425.208L1705.81,425.208L1705.81,461.517L1580.91,461.517L1580.91,265.743L1701.75,265.743L1701.75,302.052L1625.35,302.052L1625.35,342.717L1697.39,342.717L1697.39,378.735Z" style="fill:white;fill-rule:nonzero;"/>
            </g>
            <g transform="matrix(4.16667,0,0,4.16667,0,-546.499)">
                <path d="M1736.02,269.812C1750.25,267.488 1771.46,265.743 1794.99,265.743C1824.03,265.743 1844.37,270.102 1858.31,281.138C1869.93,290.433 1876.32,304.086 1876.32,322.095C1876.32,347.073 1858.6,364.211 1841.75,370.311L1841.75,371.182C1855.4,376.701 1862.96,389.772 1867.89,407.78C1873.99,429.857 1880.09,455.418 1883.87,462.97L1838.56,462.97C1835.36,457.45 1830.71,441.477 1824.9,417.368C1819.68,392.969 1811.25,386.288 1793.24,385.998L1779.88,385.998L1779.88,462.97L1736.02,462.97L1736.02,269.812ZM1779.88,354.043L1797.31,354.043C1819.39,354.043 1832.46,343.009 1832.46,325.87C1832.46,307.861 1820.26,298.857 1799.92,298.567C1789.18,298.567 1783.08,299.438 1779.88,300.018L1779.88,354.043Z" style="fill:white;fill-rule:nonzero;"/>
            </g>
            <g transform="matrix(4.16667,0,0,4.16667,0,-540.444)">
                <path d="M1938.18,461.517L1892,265.743L1939.34,265.743L1954.16,346.2C1958.51,369.729 1962.58,394.999 1965.78,414.75L1966.36,414.75C1969.26,393.547 1974.2,370.019 1979.14,345.91L1995.69,265.743L2042.75,265.743L2058.44,348.236C2062.79,371.18 2065.99,392.096 2068.89,413.879L2069.47,413.879C2072.38,392.096 2076.74,369.149 2080.8,345.91L2096.78,265.743L2141.8,265.743L2091.26,461.517L2043.33,461.517L2026.77,377.28C2023,357.819 2019.8,339.229 2017.48,316.864L2016.9,316.864C2013.41,338.939 2010.22,357.529 2005.57,377.28L1986.98,461.517L1938.18,461.517Z" style="fill:white;fill-rule:nonzero;"/>
            </g>
            <g transform="matrix(4.16667,0,0,4.16667,0,-540.444)">
                <path d="M2281.22,378.735L2209.18,378.735L2209.18,425.208L2289.64,425.208L2289.64,461.517L2164.74,461.517L2164.74,265.743L2285.58,265.743L2285.58,302.052L2209.18,302.052L2209.18,342.717L2281.22,342.717L2281.22,378.735Z" style="fill:white;fill-rule:nonzero;"/>
            </g>
            <g transform="matrix(4.16667,0,0,4.16667,0,-540.444)">
                <path d="M2364.29,265.743L2364.29,340.976L2437.2,340.976L2437.2,265.743L2481.35,265.743L2481.35,461.517L2437.2,461.517L2437.2,379.606L2364.29,379.606L2364.29,461.517L2319.85,461.517L2319.85,265.743L2364.29,265.743Z" style="fill:white;fill-rule:nonzero;"/>
            </g>
            <g transform="matrix(4.16667,0,0,4.16667,0,-546.499)">
                <path d="M2519.98,269.812C2534.21,267.488 2555.42,265.743 2578.95,265.743C2607.99,265.743 2628.33,270.102 2642.27,281.138C2653.89,290.433 2660.28,304.086 2660.28,322.095C2660.28,347.073 2642.56,364.211 2625.71,370.311L2625.71,371.182C2639.36,376.701 2646.92,389.772 2651.85,407.78C2657.95,429.857 2664.05,455.418 2667.83,462.97L2622.52,462.97C2619.32,457.45 2614.67,441.477 2608.86,417.368C2603.64,392.969 2595.21,386.288 2577.2,385.998L2563.84,385.998L2563.84,462.97L2519.98,462.97L2519.98,269.812ZM2563.84,354.043L2581.27,354.043C2603.35,354.043 2616.42,343.009 2616.42,325.87C2616.42,307.861 2604.22,298.857 2583.88,298.567C2573.14,298.567 2567.04,299.438 2563.84,300.018L2563.84,354.043Z" style="fill:white;fill-rule:nonzero;"/>
            </g>
            <g transform="matrix(4.16667,0,0,4.16667,0,-3921.5)">
                <path d="M1291.35,992.483C1318,992.483 1330.35,1018.76 1335.6,1035.98L1373.17,1035.98C1379.54,1007.52 1397.77,947.437 1438.28,947.437C1478.78,947.437 1494.64,1007.52 1499.88,1035.98L2481.74,1035.98L2481.67,1000.45L2447.42,966.163L2412.12,1001.92L2411.66,956.11L2365.51,908.955L2330.87,939.558L2331.02,895.088L2283.79,847.85L2241.75,889.918L2241.67,853.272L2197.75,809.355L2017.78,809.355L1973.86,853.272L1973.26,853.272L1973.26,832.053L1973.07,832.053L1973.07,715.362L1943.78,502.731L1943.52,502.731L1917.24,715.362L1917.24,803.571L1889.75,778.32L1889.21,778.32L1860.53,804.396L1859.53,715.362L1833.24,502.731L1832.98,502.731L1804.69,715.362L1804.69,884.045C1794.63,881.615 1784.84,878.647 1775.21,875.257L1775.21,753.477C1775.21,741.111 1764.73,739.88 1760.75,729.367C1758.7,723.967 1757.97,720.06 1757.74,717.51L1757.54,717.522C1757.31,720.07 1756.58,723.976 1754.54,729.367C1750.55,739.88 1740.08,741.111 1740.08,753.477C1740.08,753.493 1740.08,753.503 1740.08,753.519L1740.08,771.771L1734.08,771.771L1734.08,712.762C1734.08,694.612 1718.71,692.792 1712.86,677.371C1709.87,669.495 1708.8,663.775 1708.45,660.035L1708.16,659.981C1707.82,663.718 1706.75,669.45 1703.74,677.371C1697.9,692.792 1682.53,694.612 1682.53,712.762L1682.53,771.771L1675.81,771.771L1675.81,753.477C1675.81,741.111 1665.33,739.88 1661.35,729.367C1659.29,723.949 1658.57,720.036 1658.34,717.487L1658.14,717.522C1657.91,720.07 1657.18,723.976 1655.14,729.367C1651.15,739.88 1640.14,741.111 1640.14,753.477L1640.08,771.771L1640.08,822.635C1623.02,817.966 1604.8,814.382 1584.95,812.501L1584.95,780.941C1584.95,780.941 1585.71,771.325 1594.56,771.325C1603.4,771.325 1604.18,781.256 1604.18,781.256L1604.29,815.289L1606.83,815.785L1606.83,763.246L1606.67,763.246C1606.67,744.199 1591.23,728.76 1572.18,728.76C1553.13,728.76 1537.69,744.199 1537.69,763.248L1537.69,763.248L1537.69,810.895C1530.31,810.403 1490.01,807.032 1386.34,851.289C1339.48,871.296 1287.86,901.373 1238.89,931.813L1230.61,910.694L1179.46,939.788L1188.51,963.647C1138.99,995.264 1095.54,1023.34 1067.21,1035.98L1244.83,1035.98C1250.98,1018.76 1264.71,992.483 1291.35,992.483ZM2134.22,868.792L2149.49,868.792L2149.49,898.943L2134.22,898.943L2134.22,868.792ZM2134.22,911.951L2149.49,911.951L2149.49,942.1L2134.22,942.1L2134.22,911.951ZM2100.04,868.792L2115.31,868.792L2115.31,898.943L2100.04,898.943L2100.04,868.792ZM2100.04,911.951L2115.31,911.951L2115.31,942.1L2100.04,942.1L2100.04,911.951ZM2065.87,868.792L2081.14,868.792L2081.14,898.943L2065.87,898.943L2065.87,868.792ZM2065.87,911.951L2081.14,911.951L2081.14,942.1L2065.87,942.1L2065.87,911.951ZM2031.69,868.792L2046.96,868.792L2046.96,898.943L2031.69,898.943L2031.69,868.792ZM2031.69,911.951L2046.96,911.951L2046.96,942.1L2031.69,942.1L2031.69,911.951ZM1997.51,868.792L2012.78,868.792L2012.78,898.943L1997.51,898.943L1997.51,868.792ZM1997.51,911.951L2012.78,911.951L2012.78,942.1L1997.51,942.1L1997.51,911.951ZM1562.84,780.941C1562.84,780.941 1563.61,771.325 1572.45,771.325C1579.39,771.325 1581.34,777.373 1581.87,780.011L1581.87,812.218C1575.69,811.693 1569.35,811.341 1562.84,811.169L1562.84,780.941ZM1540.77,780.941C1540.77,780.941 1541.54,771.325 1550.38,771.325C1557.12,771.325 1559.17,777.067 1559.76,779.813L1559.76,811.112C1557.85,811.08 1555.98,811.006 1554.03,811.006C1549.24,811.006 1544.74,810.882 1540.77,811.08L1540.77,780.941Z" style="fill:white;fill-rule:nonzero;"/>
            </g>
        </g>
    </g>
</svg>
